# xmcd CD database file generated by OrangeCD 5.2
#
# Track frame offsets:
#	150
#	14463
#	27547
#	39703
#	52907
#	68050
#	76685
#	89923
#	103209
#	115425
#	129223
#	142368
#	155189
#	169605
#	182451
#	194688
#	207267
#	220310
#	233360
#	246044
#
# Disc length: 3461 seconds
#
# Revision: 2
# Processed by: cddbd v1.5.1PL0 Copyright (c) Steve Scherf et al.
# Submitted via: OrangeCD 5.2
#
DISCID=220d8314
DTITLE=Dinah Washington - Low Down Blues
DYEAR=1900
DGENRE=Blues
TTITLE0=Mellow Mamma Blues
TTITLE1=Evil Gal Blues
TTITLE2=Pacific Coast Blues
TTITLE3=Emraceable You
TTITLE4=Blow Top BLues
TTITLE5=Mean and Evil Blues
TTITLE6=Rich Man's Blues
TTITLE7=When a Woman Loves a Man
TTITLE8=OO-WEE Talkie Walkie
TTITLE9=Salty Papa Blues
TTITLE10=Postman Blues
TTITLE11=Wise Woman Blues
TTITLE12=I know how to do it
TTITLE13=Homeward Bound
TTITLE14=A Slick Chick (On the Mellow Side)
TTITLE15=I Can't Get Started (With You)
TTITLE16=All or Nothing
TTITLE17=That's why a Woman Loves a Heel
TTITLE18=Joy Juice
TTITLE19=No Voot, No Boot
EXTD=
EXTT0=
EXTT1=
EXTT2=
EXTT3=
EXTT4=
EXTT5=
EXTT6=
EXTT7=
EXTT8=
EXTT9=
EXTT10=
EXTT11=
EXTT12=
EXTT13=
EXTT14=
EXTT15=
EXTT16=
EXTT17=
EXTT18=
EXTT19=
PLAYORDER=
